PathFileType	4	(X/Y/Z)	s01c0102.trc
DataRate	CameraRate	NumFrames	NumMarkers	Units	OrigDataRate	OrigDataStartFrame	OrigNumFrames
200	200	4	48	mm	200	500	2000
Frame#	Time	racr			lacr			c7			jug			rlel			rdr			llel			ldr			s2			lic			ric			lasi			rasi			rpsi			lpsi			rgt			lgt			rth1			rth2			rth3			rth4			rlfc			rsh1			rsh2			rsh3			rsh4			rlmal			rmmal			rcal			rtoe			rmt5			lth1			lth2			lth4			lth3			llfc			lsh1			lsh2			lsh3			lsh4			llmal			lmmal			lcal			ltoe			lmt5			SBIKE			LBIKE			RBIKE			
		X1	Y1	Z1	X2	Y2	Z2	X3	Y3	Z3	X4	Y4	Z4	X5	Y5	Z5	X6	Y6	Z6	X7	Y7	Z7	X8	Y8	Z8	X9	Y9	Z9	X10	Y10	Z10	X11	Y11	Z11	X12	Y12	Z12	X13	Y13	Z13	X14	Y14	Z14	X15	Y15	Z15	X16	Y16	Z16	X17	Y17	Z17	X18	Y18	Z18	X19	Y19	Z19	X20	Y20	Z20	X21	Y21	Z21	X22	Y22	Z22	X23	Y23	Z23	X24	Y24	Z24	X25	Y25	Z25	X26	Y26	Z26	X27	Y27	Z27	X28	Y28	Z28	X29	Y29	Z29	X30	Y30	Z30	X31	Y31	Z31	X32	Y32	Z32	X33	Y33	Z33	X34	Y34	Z34	X35	Y35	Z35	X36	Y36	Z36	X37	Y37	Z37	X38	Y38	Z38	X39	Y39	Z39	X40	Y40	Z40	X41	Y41	Z41	X42	Y42	Z42	X43	Y43	Z43	X44	Y44	Z44	X45	Y45	Z45	X46	Y46	Z46	X47	Y47	Z47	X48	Y48	Z48	
500	2.5000	461.721978	1343.900945	-165.485841	479.965797	1286.241021	-450.302595	416.932679	1396.213856	-315.531437	416.678105	1226.593322	-300.447965	539.715940	1091.776575	-45.257398	723.535465	893.878585	-80.429848	551.693428	1033.712818	-556.095453	723.405159	858.741866	-466.905337	-108.911488	1179.592986	-302.029673	57.153230	1170.283225	-471.642673	46.820449	1219.115923	-141.502154	63.958429	1119.125842	-440.722108	74.958615	1167.176247	-165.966914	-84.544851	1228.453979	-256.576286	-81.670805	1216.066919	-361.134748	7.310336	1112.684132	-99.958399	3.590312	1027.476429	-473.322820	125.744436	1043.787242	-86.222857	204.018920	1017.311255	-93.469779	286.666872	982.415167	-105.896467	221.827252	1066.896007	-114.619218	369.875495	904.831839	-131.819016	326.817582	795.936377	-95.277287	302.724850	714.372888	-95.461950	268.888458	632.337717	-102.169760	346.030881	699.190529	-134.584109	218.874127	515.137933	-112.184904	253.634078	527.318993	-197.357831	172.917926	472.655516	-165.682981	441.884019	487.100222	-142.702239	340.823681	445.523706	-75.035734	63.245072	914.377982	-472.372859	131.974786	856.879482	-467.575281	167.676205	897.345518	-463.792964	190.299847	797.583933	-445.487309	238.169084	696.346520	-420.213344	166.693919	609.299125	-457.028596	131.650993	530.450656	-448.307404	94.404192	454.422241	-433.572563	182.338839	511.443710	-418.396919	38.973627	339.160614	-415.343434	70.590542	336.741569	-337.352357	-12.187600	327.295272	-372.154569	224.630695	180.608642	-379.846310	120.981979	209.427474	-444.047657	-230.044047	890.341171	-256.158787	-22.070712	79.922352	-454.615612	-21.447295	80.467051	-54.296636	
501	2.5050	461.356634	1343.761262	-165.882471	479.707735	1285.841400	-449.800886	416.460741	1395.554797	-315.466160	416.088680	1225.787359	-300.074101	539.597037	1091.828693	-45.205690	723.255111	893.840963	-80.419396	551.555952	1033.507128	-556.213558	723.277162	858.616849	-467.057761	-109.222732	1178.856541	-299.959635	55.067636	1169.555582	-470.514307	47.319334	1217.526595	-140.150118	62.533091	1118.254282	-439.619505	75.665561	1166.343072	-165.251287	-84.212773	1227.589998	-254.581895	-82.530792	1215.240035	-358.932181	8.418061	1110.795651	-98.994892	2.763530	1026.912822	-472.262733	126.773153	1041.398005	-85.759541	204.705778	1013.859757	-93.485070	286.724819	977.812560	-106.539058	222.909615	1063.121695	-114.988133	368.704175	897.816512	-132.579476	327.305961	787.459597	-95.595341	304.742758	705.537824	-96.082063	272.407588	622.857159	-102.696721	347.945761	691.364237	-135.743101	223.909967	506.052636	-112.008100	258.277871	518.817003	-197.328980	178.112446	462.694415	-165.510637	447.134730	481.225900	-142.675264	346.722204	438.322392	-74.952722	64.289114	915.286774	-471.242239	133.084865	858.385915	-467.756073	168.303575	899.226414	-463.599132	192.139752	799.533632	-446.509850	241.115405	698.649106	-421.447362	168.173939	612.983856	-456.827965	131.259059	535.017738	-448.319990	92.211832	460.063775	-433.579730	181.260754	514.968675	-418.377109	34.307455	346.761158	-415.125211	66.482641	343.135342	-336.582321	-17.187918	334.956905	-371.547504	218.505820	186.449260	-380.125021	114.861806	216.076259	-443.917140	-229.980280	890.301386	-256.144637	-22.058107	79.927917	-454.618558	-21.457460	80.452499	-54.304209	
502	2.5100	461.042293	1343.520279	-166.172437	479.442948	1285.452464	-449.226786	416.019998	1395.055686	-315.619622	415.743432	1224.821020	-299.710581	539.400152	1091.765706	-45.048307	723.073183	893.744516	-80.407504	551.520160	1033.343908	-556.267257	723.154597	858.502156	-467.150262	-109.563094	1178.121581	-297.664776	53.481893	1168.735094	-469.590047	47.760818	1215.734016	-138.615080	61.502073	1117.350142	-438.581004	76.466767	1165.484419	-164.427313	-84.198625	1226.696782	-252.318880	-83.292268	1214.493651	-356.919958	9.574531	1108.726962	-97.903758	2.081776	1026.423580	-471.134639	128.047403	1038.662125	-85.174509	205.471896	1010.136522	-93.442461	286.912938	972.945338	-107.112486	224.134729	1059.021001	-115.366417	367.436586	890.794984	-133.278382	327.857502	779.404671	-95.823947	307.005625	697.129714	-96.491219	276.186949	613.778436	-103.016251	350.069954	683.842001	-135.889245	228.818072	497.130621	-111.613830	262.738440	510.205326	-196.855668	183.371437	453.472313	-165.182649	452.282195	474.744714	-142.660574	352.449339	430.645501	-74.930968	64.728388	916.022670	-470.777758	134.167101	859.756793	-467.988732	168.951719	901.123497	-463.718356	193.948347	801.367865	-447.733978	244.200459	701.126147	-422.902245	169.810847	616.890112	-457.279226	130.952450	540.050134	-448.472102	89.672269	466.171083	-432.809412	180.529616	518.594479	-418.611749	29.967739	354.455331	-414.730121	62.108460	350.335323	-335.580468	-21.636138	342.822822	-370.649059	212.757898	192.615438	-380.282793	109.097718	223.086186	-443.749149	-229.905390	890.268096	-256.088507	-22.066265	79.896231	-454.593332	-21.466086	80.420629	-54.308570	
503	2.5150	460.742684	1343.297482	-166.331564	479.261410	1285.250620	-448.722510	415.631323	1394.415359	-315.338801	415.430895	1224.165263	-299.421902	539.200521	1091.578131	-44.846880	722.959777	893.591575	-80.353750	551.505765	1033.142509	-556.396333	723.099241	858.419715	-467.174594	-109.805586	1177.280176	-295.225743	52.082958	1167.554413	-468.570294	48.286046	1213.757585	-136.989928	60.495255	1116.396374	-437.510444	77.319824	1164.605168	-163.364062	-84.072814	1225.708638	-249.867999	-83.987309	1213.774996	-354.735598	10.986905	1106.640846	-96.757264	1.470027	1026.072941	-469.961559	129.366432	1035.617645	-84.550788	206.271643	1006.010430	-93.350011	287.146085	967.656917	-107.633047	225.526998	1054.665405	-115.628936	366.087414	883.883917	-133.827921	328.499317	771.699718	-96.013587	309.205693	689.013628	-96.792214	279.925634	605.143956	-103.070724	352.073939	676.621069	-136.660373	233.561133	488.051294	-111.074714	268.587638	501.379329	-197.236349	188.394800	444.479237	-164.590356	457.373332	467.708901	-142.711370	357.763684	422.836237	-74.737656	65.331935	916.727404	-470.382461	135.231038	861.357577	-468.380108	169.595719	902.964100	-464.186945	195.430342	803.217822	-448.672486	247.413300	703.723508	-424.486104	171.577939	621.208761	-457.772063	130.879489	545.295540	-448.703047	87.689194	472.553998	-432.578958	180.002256	522.717122	-419.054491	26.123510	362.362275	-414.171034	58.812892	357.725739	-334.518991	-25.676111	350.418546	-368.875288	207.374621	198.984036	-380.548929	103.728221	230.431037	-443.560624	-229.822474	890.241205	-255.987491	-22.074232	79.908923	-454.612420	-21.469777	80.383004	-54.297548	
